<?xml version="1.0" standalone="no"?>
<!DOCTYPE svg PUBLIC "-//W3C//DTD SVG 20010904//EN"
 "http://www.w3.org/TR/2001/REC-SVG-20010904/DTD/svg10.dtd">
<svg version="1.0" xmlns="http://www.w3.org/2000/svg"
 width="1120.000000pt" height="1120.000000pt" viewBox="0 0 1120.000000 1120.000000"
 preserveAspectRatio="xMidYMid meet">

<g transform="translate(0.000000,1120.000000) scale(0.100000,-0.100000)"
fill="#000000" stroke="none">
<path d="M9023 6413 c-10 -4 -13 -136 -13 -614 l0 -609 115 0 115 0 0 128 0
128 49 48 49 48 123 -176 123 -176 128 0 c70 0 128 4 128 8 0 5 -14 28 -31 52
-30 42 -137 192 -261 368 l-58 83 77 72 c132 121 263 250 263 259 0 4 -58 8
-130 8 -113 0 -132 -2 -147 -18 -10 -11 -84 -87 -165 -169 l-148 -151 0 353 0
353 -22 5 c-30 7 -179 7 -195 0z"/>
<path d="M6289 6183 c-1 -126 -1 -231 0 -235 2 -16 -16 -7 -43 21 -70 73 -220
100 -343 62 -118 -36 -204 -120 -254 -249 -33 -83 -33 -250 -1 -342 57 -165
190 -261 362 -263 94 -1 174 22 234 68 l45 34 7 -44 6 -45 104 0 104 0 0 610
0 610 -110 0 -110 0 -1 -227z m-124 -342 c49 -22 98 -76 116 -128 17 -49 17
-157 0 -206 -31 -90 -103 -136 -214 -137 -99 0 -164 37 -204 115 -22 41 -29
154 -13 209 16 57 72 123 124 147 53 24 139 24 191 0z"/>
<path d="M3434 6301 c-2 -2 -4 -253 -4 -558 l0 -553 110 0 110 0 2 351 3 352
130 -254 130 -254 76 -3 76 -3 83 158 c46 87 107 203 137 258 l53 100 0 -352
0 -353 110 0 110 0 0 560 0 560 -112 -7 c-62 -3 -116 -8 -120 -12 -7 -7 -156
-281 -265 -489 l-70 -134 -58 114 c-99 194 -247 472 -264 496 -16 22 -24 23
-125 25 -59 1 -110 0 -112 -2z"/>
<path d="M6707 6304 c-4 -4 -7 -256 -7 -561 l0 -553 375 0 375 0 0 100 0 100
-260 0 -260 0 -2 458 -3 457 -106 3 c-58 1 -108 -1 -112 -4z"/>
<path d="M7805 6282 c-5 -4 -19 -18 -30 -32 -16 -21 -14 -20 13 4 29 27 37 36
30 36 -2 0 -7 -4 -13 -8z"/>
<path d="M4989 6036 c-143 -38 -260 -173 -290 -332 -41 -221 73 -437 267 -506
82 -28 233 -28 325 1 50 16 150 73 188 107 4 3 -99 144 -106 144 -3 0 -18 -9
-34 -20 -114 -82 -284 -85 -367 -7 -28 26 -74 112 -65 121 4 3 143 6 310 6
l303 0 0 70 c0 146 -61 284 -158 357 -86 65 -253 92 -373 59z m217 -185 c46
-21 81 -64 90 -110 l6 -30 -196 -3 c-223 -3 -222 -4 -163 74 62 82 171 111
263 69z"/>
<path d="M8372 6035 c-57 -16 -92 -35 -134 -74 l-28 -25 0 30 c0 70 0 69 -120
66 l-110 -3 0 -373 c0 -205 3 -394 6 -420 l7 -46 108 0 108 0 3 263 c3 252 4
263 26 302 74 129 288 143 342 23 18 -39 20 -67 20 -315 l0 -273 116 0 116 0
-4 308 c-4 286 -6 311 -26 362 -49 125 -134 181 -285 186 -61 3 -110 -1 -145
-11z"/>
<path d="M7580 5615 l0 -425 110 0 110 0 -2 423 -3 422 -107 3 -108 3 0 -426z"/>
<path d="M2765 5770 c-92 -4 -154 -12 -182 -22 -23 -9 -101 -40 -173 -68
l-132 -52 6 -72 c3 -39 5 -318 6 -620 l0 -548 94 4 c81 3 99 7 135 31 22 15
50 45 61 67 19 37 20 58 20 372 l0 333 74 27 c40 16 161 71 269 123 l197 96 0
95 c0 110 -12 146 -64 192 -52 46 -92 51 -311 42z"/>
<path d="M2070 5531 c-256 -119 -720 -391 -720 -422 0 -18 76 -92 107 -106 24
-9 88 -13 239 -13 203 0 206 0 201 -21 -3 -13 -1 -19 7 -17 6 2 78 23 159 48
l147 45 0 272 c0 150 -3 273 -7 273 -5 -1 -64 -27 -133 -59z"/>
<path d="M8149 4965 c-49 -16 -109 -67 -136 -118 -27 -49 -24 -170 4 -223 43
-80 131 -134 221 -134 44 0 117 28 143 56 20 22 21 26 8 40 -14 13 -20 12 -60
-10 -99 -57 -222 -18 -265 83 -17 40 -18 108 -3 148 13 34 55 80 91 99 39 20
117 18 163 -6 46 -24 59 -25 74 -6 25 30 -90 88 -172 85 -12 0 -43 -7 -68 -14z"/>
<path d="M8863 4970 c-118 -24 -185 -110 -185 -237 -1 -183 180 -296 341 -213
53 27 68 47 49 66 -13 13 -20 12 -59 -10 -88 -51 -203 -26 -247 53 -43 77 -37
170 15 232 52 62 146 77 228 37 42 -20 47 -21 61 -6 21 21 14 31 -38 56 -54
25 -111 33 -165 22z"/>
<path d="M9676 4955 c-11 -12 -46 -64 -76 -114 -30 -50 -58 -91 -61 -91 -3 0
-36 50 -73 110 -61 100 -70 110 -97 110 -16 0 -29 -3 -29 -6 0 -3 37 -65 82
-137 l83 -132 5 -100 c5 -99 5 -100 30 -100 25 0 25 1 30 100 l5 100 83 133
c45 74 82 135 82 137 0 1 -9 5 -21 8 -14 4 -28 -2 -43 -18z"/>
<path d="M3462 4733 l3 -238 25 0 c24 0 25 2 28 82 l3 81 94 4 c101 3 126 14
169 71 28 38 28 126 0 164 -47 63 -76 73 -206 73 l-118 0 2 -237z m264 154
c15 -18 24 -41 24 -62 0 -82 -46 -115 -159 -115 l-71 0 0 106 0 106 91 -4 c85
-3 92 -5 115 -31z"/>
<path d="M4160 4730 l0 -240 25 0 c24 0 24 0 27 113 l3 112 145 -1 145 -1 3
-112 3 -112 27 3 27 3 3 145 c2 80 0 187 -3 238 -7 89 -8 92 -31 92 -24 0 -24
-1 -24 -100 l0 -100 -150 0 -150 0 0 100 0 100 -25 0 -25 0 0 -240z"/>
<path d="M5076 4918 c-145 -325 -186 -419 -186 -423 0 -4 14 -5 31 -3 27 3 34
10 53 58 l22 55 133 3 132 3 27 -61 c23 -52 30 -60 54 -60 16 0 28 2 28 4 0 5
-155 355 -190 429 -19 40 -26 47 -52 47 -26 0 -32 -6 -52 -52z m67 -30 c3 -7
26 -61 51 -120 l45 -108 -104 0 c-77 0 -105 3 -105 13 0 18 92 227 101 227 4
0 9 -6 12 -12z"/>
<path d="M5700 4746 c0 -123 3 -231 6 -240 3 -9 17 -16 30 -16 23 0 24 2 24
85 l0 85 60 0 60 0 37 -61 c60 -97 71 -109 104 -109 16 0 29 2 29 5 0 3 -25
42 -55 87 l-54 82 37 21 c100 55 95 216 -8 267 -27 14 -61 18 -152 18 l-118 0
0 -224z m266 142 c38 -37 38 -109 0 -147 -24 -23 -33 -26 -113 -26 l-88 0 -3
104 -3 103 90 -3 c83 -4 93 -6 117 -31z"/>
<path d="M6430 4731 l0 -241 25 0 25 0 2 186 3 186 79 -138 c44 -77 84 -142
90 -146 16 -11 26 4 107 146 l74 129 3 -182 2 -182 26 3 25 3 2 238 2 237 -30
0 c-28 -1 -35 -9 -115 -155 -46 -85 -86 -152 -88 -150 -3 2 -42 71 -87 152
-76 138 -84 148 -113 151 l-32 3 0 -240z"/>
<path d="M7427 4953 c-3 -10 -48 -114 -101 -231 -53 -117 -96 -217 -96 -223 0
-6 12 -9 27 -7 23 2 33 14 55 61 l28 57 125 0 125 0 28 -57 c23 -48 32 -59 56
-61 36 -4 39 -14 -82 261 l-95 217 -32 0 c-22 0 -34 -6 -38 -17z m97 -177 c25
-60 46 -111 46 -112 0 -2 -48 -4 -106 -4 -58 0 -104 4 -102 8 44 109 103 231
109 225 4 -4 28 -57 53 -117z"/>
</g>
</svg>